# xmcd
#
# Track frame offsets: 
#        183
#        19860
#        40460
#
# Disc length: 934 seconds
#
# Revision: 2
# Processed by: cddbd v1.5.2PL0 Copyright (c) Steve Scherf et al.
# Submitted via: ExactAudioCopy v1.0b3
#
DISCID=1f03a403
DTITLE=Tina Turner - I Don't Wanna Lose You
DYEAR=1989
DGENRE=Rock
TTITLE0=I Don't Wanna Lose You
TTITLE1=Steel Claw (Live)
TTITLE2=The Best (Extended Mighty Mix)
EXTD=
EXTT0=
EXTT1=
EXTT2=
PLAYORDER=
